<svg width="17" height="13" viewBox="0 0 17 13" fill="none" xmlns="http://www.w3.org/2000/svg">
<path d="M0.874923 5.6385C1.13703 5.6266 1.34454 5.7575 1.53566 5.94195C2.67146 7.05459 3.80727 8.16723 4.94308 9.27987C5.13966 9.47622 5.33624 9.67257 5.53829 9.86296C5.9806 10.2854 6.47751 10.2557 6.87068 9.77966C8.48702 7.82808 10.1088 5.8765 11.7252 3.92492C12.719 2.73493 13.7128 1.53304 14.7012 0.343053C14.9469 0.0455562 15.2473 -0.0674927 15.6077 0.0396063C15.9353 0.140755 16.1428 0.384703 16.2247 0.74765C16.3012 1.10465 16.1865 1.39619 15.9681 1.66394C15.007 2.81823 14.0514 3.97847 13.0903 5.13871C11.0426 7.60794 8.99485 10.0772 6.95258 12.5464C6.47205 13.1295 5.99152 13.1473 5.47276 12.6178C3.76359 10.8685 2.05441 9.11922 0.345243 7.36399C-0.0206179 6.98914 -0.102527 6.51315 0.132279 6.1026C0.301558 5.79915 0.552746 5.6504 0.874923 5.6385Z" fill="white"/>
</svg>
