<svg width="12" height="9" viewBox="0 0 12 9" fill="none" xmlns="http://www.w3.org/2000/svg">
<path d="M0.609104 3.90486C0.790556 3.89662 0.934205 3.98724 1.06651 4.11492C1.8528 4.88518 2.63909 5.65543 3.42538 6.42568C3.56147 6.56161 3.69756 6.69753 3.83743 6.82934C4.14363 7.12179 4.48763 7.10119 4.75981 6.77167C5.87876 5.42064 7.00149 4.06962 8.12044 2.71859C8.80845 1.89479 9.49645 1.06275 10.1807 0.238952C10.3508 0.0330023 10.5587 -0.0452586 10.8082 0.0288832C11.035 0.0989061 11.1787 0.267785 11.2354 0.519043C11.2883 0.766183 11.2089 0.968014 11.0577 1.15337C10.3924 1.95245 9.73083 2.75566 9.06551 3.55886C7.64791 5.26824 6.23032 6.97762 4.81651 8.68701C4.48385 9.09067 4.15119 9.10303 3.79207 8.73643C2.60885 7.52545 1.42564 6.31447 0.242421 5.09936C-0.0108553 4.83987 -0.0675589 4.51035 0.0949915 4.22614C0.212179 4.01607 0.38607 3.91309 0.609104 3.90486Z" fill="#60636B"/>
</svg>
