<svg width="45" height="39" viewBox="0 0 45 39" fill="none" xmlns="http://www.w3.org/2000/svg">
<path d="M9.05022 20.6931C9.05022 21.4824 8.9856 22.3489 9.06315 23.2024C9.34748 26.4178 10.6463 29.2737 12.3136 31.9949C13.5737 34.0421 14.9371 36.0124 16.6561 37.7132C16.7013 37.7581 16.7401 37.8094 16.7788 37.8608C16.7918 37.8736 16.7788 37.8993 16.7788 38.002C16.5591 37.8929 16.3588 37.803 16.1714 37.7003C12.3976 35.5375 9.32163 32.6431 6.82082 29.1004C4.77235 26.1931 2.95651 23.1575 1.67056 19.8395C0.539707 16.9258 -0.171122 13.9222 0.0356631 10.7647C0.21014 8.04992 0.914504 5.5213 2.85312 3.49968C5.78689 0.438367 9.37332 -0.620574 13.4509 0.57956C17.5155 1.77328 19.984 4.59071 20.7013 8.74304C21.6835 14.4292 17.7675 19.7175 12.0486 20.5583C11.1052 20.6866 10.1294 20.6481 9.05022 20.6931Z" fill="#2C3138"/>
<path d="M39.8806 37.8477C39.7191 37.7706 39.551 37.7129 39.4024 37.623C35.8871 35.5886 32.9016 32.9829 30.4977 29.697C28.4105 26.8411 26.5688 23.8504 25.1666 20.6029C24.1456 18.2412 23.4283 15.7896 23.2086 13.2353C22.9824 10.6296 23.1698 8.03681 24.4105 5.66863C26.1746 2.29285 28.9985 0.380331 32.8241 0.0401855C38.2845 -0.441153 43.1633 3.46731 43.9065 8.85187C44.6754 14.4418 40.8241 19.5825 35.1956 20.4232C34.2457 20.5644 33.2699 20.5195 32.2425 20.5644C32.2231 20.7826 32.1714 21.0907 32.1585 21.4052C32.0486 23.5359 32.5074 25.5639 33.2635 27.5406C34.2845 30.2104 35.7901 32.6107 37.4897 34.8955C38.2005 35.8453 39.0276 36.7053 39.8031 37.6038C39.8483 37.6551 39.8871 37.7129 39.9258 37.7706C39.9129 37.7963 39.9 37.822 39.8806 37.8477Z" fill="#2C3138"/>
</svg>
